<svg width="35" height="35" viewBox="0 0 35 35" fill="none" xmlns="http://www.w3.org/2000/svg">
<path d="M24.0732 12.1021C20.6279 7.87754 19.1049 4.28457 18.2326 2.14082C17.9564 1.46543 17.0404 1.46543 16.767 2.14082C15.8947 4.28457 14.3717 7.87754 10.9264 12.1021C8.76894 14.749 6.6416 18.6236 6.6416 22.4408C6.6416 28.9541 11.342 33.3646 17.4998 33.3646C23.6576 33.3646 28.358 28.9514 28.358 22.4408C28.358 18.4732 26.2307 14.749 24.0732 12.1021V12.1021Z" fill="#E5322E"/>
<path d="M20.5023 21.8313C22.2386 18.5281 21.9925 15.2961 23.3652 15.8785C25.23 16.6742 27.2945 20.7621 26.5206 24.4672C25.9683 27.1086 24.1855 28.7082 21.9132 27.9453C20.0785 27.3301 18.9382 24.8063 20.5023 21.8313V21.8313Z" fill="#FF6050"/>
<circle cx="26" cy="27" r="7" fill="white"/>
<rect x="22" y="26" width="8" height="2" fill="#E5322E"/>
<rect x="25" y="31" width="8" height="2" transform="rotate(-90 25 31)" fill="#E5322E"/>
</svg>
