<svg width="29" height="29" viewBox="0 0 29 29" fill="none" xmlns="http://www.w3.org/2000/svg">
<path d="M3.5 28.6249H16.7275C17.521 28.6253 18.3051 28.4434 19.026 28.0917C19.7469 27.74 20.3874 27.2269 20.9034 26.5876L27.9186 17.9076C28.0655 17.7261 28.1681 17.5091 28.2173 17.2757C28.2665 17.0424 28.2608 16.7997 28.2008 16.5692C28.1408 16.3387 28.0282 16.1273 27.873 15.9538C27.7178 15.7803 27.5248 15.65 27.3109 15.5742L24.6049 14.6176C23.9509 14.3921 23.2545 14.3411 22.5775 14.469C21.9005 14.597 21.2636 14.8999 20.7232 15.3511L16.3439 19.0655L15.4955 17.2644C15.041 16.2936 14.3393 15.4771 13.4698 14.9075C12.6003 14.3379 11.5977 14.0379 10.5757 14.0415H3.5C1.98337 14.0415 0.75 15.3496 0.75 16.9582V25.7082C0.75 27.3167 1.98337 28.6249 3.5 28.6249ZM3.5 16.9582H10.5757C11.6249 16.9582 12.5668 17.5751 13.0356 18.5696L13.6502 19.8749H7.625V22.7915H15.8942C16.1058 22.7886 16.3138 22.7336 16.502 22.6311L16.5061 22.6296L16.5116 22.6267H16.5157L16.5185 22.6253H16.524L16.5254 22.6238C16.5377 22.6282 16.5295 22.6224 16.5295 22.6224C16.5432 22.6224 16.5322 22.6209 16.5322 22.6209H16.5336L16.5364 22.6194L16.5405 22.618L16.5433 22.6165L16.546 22.6151L16.5501 22.6136L16.5529 22.6121C16.557 22.6121 16.5542 22.6107 16.5556 22.6107L16.5598 22.6078L16.5625 22.6063L16.5652 22.6049L16.5694 22.6034L16.5721 22.6019H16.5735L16.5763 22.6005H16.5776L16.5804 22.599L16.5831 22.5976C16.5955 22.5961 16.5872 22.5961 16.5872 22.5961L16.59 22.5946C16.643 22.5607 16.6935 22.5227 16.7413 22.4809L22.442 17.6436C22.8022 17.3403 23.2986 17.2455 23.7345 17.4001L24.5004 17.6713L18.8175 24.7049C18.5561 25.0197 18.2346 25.2719 17.8742 25.4449C17.5139 25.6179 17.123 25.7076 16.7275 25.7082H3.5V16.9582V16.9582ZM20 0.916518H19.9766C19.7525 0.919434 18.5934 0.973393 17.25 1.94464C15.9424 0.999643 14.8107 0.923809 14.544 0.917976L14.5027 0.916518H14.4973C13.3959 0.916518 12.3591 1.37298 11.5836 2.19693C10.8054 3.02381 10.375 4.12193 10.375 5.29152C10.375 6.4611 10.8054 7.55923 11.5589 8.35985L16.2531 13.5894C16.3823 13.7316 16.5372 13.8447 16.7085 13.9219C16.8799 13.9991 17.0641 14.0388 17.2503 14.0387C17.4365 14.0386 17.6207 13.9986 17.7919 13.9211C17.9632 13.8437 18.1179 13.7304 18.2469 13.588L22.9164 8.38464C23.696 7.55923 24.125 6.4611 24.125 5.29152C24.125 4.12193 23.6946 3.02381 22.9177 2.19839C22.536 1.79085 22.0817 1.46771 21.5814 1.24767C21.081 1.02763 20.5444 0.915074 20.0028 0.916518H20ZM21.375 5.29152C21.375 5.68089 21.232 6.04693 20.9474 6.34881L17.25 10.4686L13.5279 6.32256C13.268 6.04693 13.125 5.68089 13.125 5.29152C13.125 4.90214 13.268 4.5361 13.5292 4.25902C13.7779 3.99077 14.1165 3.83769 14.4711 3.83318C14.5055 3.83464 15.1614 3.87985 15.9382 4.54048C16.0496 4.63527 16.1624 4.74318 16.2779 4.86423L17.25 5.89527L18.2221 4.86423C18.3376 4.74318 18.4504 4.63527 18.5618 4.54048C19.2891 3.92068 19.9038 3.84339 20.0083 3.83464C20.1875 3.83461 20.3649 3.87222 20.5303 3.94531C20.6958 4.0184 20.8459 4.12551 20.9721 4.26048C21.232 4.5361 21.375 4.90214 21.375 5.29152Z" fill="#E5322E"/>
</svg>
