<svg width="35" height="35" viewBox="0 0 35 35" fill="none" xmlns="http://www.w3.org/2000/svg">
<path d="M3.62315 24.8662L23.8849 4.6045C23.9177 4.57169 23.9423 4.52794 23.9724 4.47872C24.1884 4.11231 24.2103 3.75958 24.1747 3.29473C24.1173 2.50723 24.3032 2.08067 24.6833 1.79356C25.1892 1.41622 26.9364 1.49278 30.2067 4.76309C33.4771 8.03341 33.5536 9.77794 33.1763 10.2838C32.8919 10.6666 32.4653 10.8498 31.6751 10.7924C31.2103 10.7596 30.8575 10.7787 30.4911 10.9947C30.4419 11.0248 30.3954 11.0494 30.3653 11.0822L10.1036 31.3439C7.32002 34.1275 4.66221 33.7037 2.9751 32.0166L2.96416 32.0057L2.95323 31.9947C1.26338 30.3076 0.839556 27.6498 3.62315 24.8662V24.8662Z" fill="white"/>
<path opacity="0.23" d="M27.7621 7.20792C26.1598 5.60558 24.9266 4.7716 24.0215 4.38058C24.1883 4.04699 24.2047 3.71613 24.1746 3.29503C24.1582 3.05441 24.1637 2.84933 24.191 2.6716C25.0277 2.64699 26.6465 3.26496 29.1758 5.79699C31.7051 8.32628 32.323 9.94503 32.2984 10.7818C32.118 10.8091 31.9156 10.8146 31.675 10.7982C31.2512 10.7681 30.9203 10.7845 30.5895 10.9513C30.1984 10.0435 29.3645 8.81027 27.7621 7.20792V7.20792Z" fill="#C9E2ED"/>
<path d="M16.8353 12.0968L4.04663 24.8909C1.34507 27.5897 1.68687 30.1136 3.2564 31.6831C4.82593 33.2499 7.34429 33.5999 10.0513 30.8929L30.0423 10.9019L16.8353 12.0968Z" fill="#D90000"/>
<path opacity="0.55" d="M3.88007 27.1659L24.3441 6.70187C24.3851 6.66094 24.4337 6.62847 24.4872 6.60631C24.5406 6.58416 24.598 6.57275 24.6559 6.57275C24.7137 6.57275 24.7711 6.58416 24.8246 6.60631C24.878 6.62847 24.9266 6.66094 24.9676 6.70187C25.0085 6.74281 25.041 6.79141 25.0631 6.84489C25.0853 6.89837 25.0967 6.9557 25.0967 7.01359C25.0967 7.07148 25.0853 7.12881 25.0631 7.18229C25.041 7.23578 25.0085 7.28437 24.9676 7.32531L4.50351 27.7894C4.33124 27.9616 4.05233 27.9616 3.88007 27.7894C3.79857 27.7061 3.75293 27.5942 3.75293 27.4777C3.75293 27.3611 3.79857 27.2492 3.88007 27.1659V27.1659Z" fill="white"/>
<path opacity="0.69" d="M23.7453 15.3451C24.4309 15.3451 24.9867 14.7893 24.9867 14.1037C24.9867 13.4181 24.4309 12.8623 23.7453 12.8623C23.0597 12.8623 22.5039 13.4181 22.5039 14.1037C22.5039 14.7893 23.0597 15.3451 23.7453 15.3451Z" fill="white"/>
<path d="M26.3376 9.73428C27.0232 9.73428 27.579 9.17848 27.579 8.49287C27.579 7.80726 27.0232 7.25146 26.3376 7.25146C25.652 7.25146 25.0962 7.80726 25.0962 8.49287C25.0962 9.17848 25.652 9.73428 26.3376 9.73428Z" fill="#D90000"/>
<path opacity="0.69" d="M20.2563 16.1904C20.5886 16.1904 20.8579 15.9211 20.8579 15.5889C20.8579 15.2566 20.5886 14.9873 20.2563 14.9873C19.9241 14.9873 19.6548 15.2566 19.6548 15.5889C19.6548 15.9211 19.9241 16.1904 20.2563 16.1904Z" fill="white"/>
<path d="M30.4611 4.09072C31.1316 4.09072 31.6752 3.54717 31.6752 2.87666C31.6752 2.20615 31.1316 1.6626 30.4611 1.6626C29.7906 1.6626 29.2471 2.20615 29.2471 2.87666C29.2471 3.54717 29.7906 4.09072 30.4611 4.09072Z" fill="#DC0A0C"/>
<path d="M33.3102 4.09053C33.6228 4.09053 33.8762 3.83711 33.8762 3.52451C33.8762 3.21191 33.6228 2.9585 33.3102 2.9585C32.9976 2.9585 32.7441 3.21191 32.7441 3.52451C32.7441 3.83711 32.9976 4.09053 33.3102 4.09053Z" fill="#DC0A0C"/>
<path opacity="0.69" d="M16.5486 20.442C17.124 20.442 17.5904 19.9756 17.5904 19.4002C17.5904 18.8248 17.124 18.3584 16.5486 18.3584C15.9733 18.3584 15.5068 18.8248 15.5068 19.4002C15.5068 19.9756 15.9733 20.442 16.5486 20.442Z" fill="white"/>
<path opacity="0.69" d="M18.1671 16.9777C18.3891 16.9777 18.569 16.7978 18.569 16.5758C18.569 16.3538 18.3891 16.1738 18.1671 16.1738C17.9451 16.1738 17.7651 16.3538 17.7651 16.5758C17.7651 16.7978 17.9451 16.9777 18.1671 16.9777Z" fill="white"/>
</svg>
