<svg width="28" height="28" viewBox="0 0 28 28" fill="none" xmlns="http://www.w3.org/2000/svg">
<path d="M22.4 2.8H28V23.8C28 24.9139 27.5575 25.9822 26.7698 26.7698C25.9822 27.5575 24.9139 28 23.8 28H4.2C3.08609 28 2.0178 27.5575 1.23015 26.7698C0.442499 25.9822 0 24.9139 0 23.8L0 0H22.4V2.8ZM22.4 5.6V23.8C22.4 24.1713 22.5475 24.5274 22.81 24.79C23.0726 25.0525 23.4287 25.2 23.8 25.2C24.1713 25.2 24.5274 25.0525 24.79 24.79C25.0525 24.5274 25.2 24.1713 25.2 23.8V5.6H22.4ZM2.8 2.8V23.8C2.8 24.1713 2.9475 24.5274 3.21005 24.79C3.4726 25.0525 3.8287 25.2 4.2 25.2H19.838C19.6792 24.7504 19.5987 24.2768 19.6 23.8V2.8H2.8ZM5.6 14H16.8V16.8H5.6V14ZM5.6 19.6H16.8V22.4H5.6V19.6ZM5.6 5.6H16.8V11.2H5.6V5.6Z" fill="#E5322E"/>
</svg>
