<svg width="146" height="34" viewBox="0 0 146 34" fill="none" xmlns="http://www.w3.org/2000/svg">
<rect width="34" height="34" rx="3.32031" fill="#002D9F"/>
<g filter="url(#filter0_d)">
<path d="M6.49471 20.6108H2.20906C2.06617 20.6108 1.93806 20.6989 1.88691 20.8323L1.17963 22.6771C1.09301 22.903 1.25981 23.1456 1.50178 23.1456H8.27808C8.41566 23.1456 8.54009 23.0638 8.59472 22.9376L10.8909 17.6307C11.0177 17.3376 11.4405 17.3593 11.5366 17.6639L14.9844 28.5931C15.0853 28.9129 15.5371 28.9153 15.6414 28.5965L20.2407 14.5326C20.3471 14.2072 20.8115 14.2188 20.9015 14.5491L23.1749 22.8913C23.2158 23.0414 23.3522 23.1456 23.5078 23.1456H28.8993C29.1072 23.1456 29.2679 22.9631 29.2415 22.7568L29.0057 20.9121C28.9837 20.7399 28.8371 20.6108 28.6635 20.6108H25.5061C25.3502 20.6108 25.2137 20.5062 25.173 20.3557L21.0593 5.10696C20.9702 4.7768 20.5067 4.76345 20.3988 5.08794L15.6104 19.4846C15.5083 19.7915 15.078 19.8019 14.9612 19.5003L11.5652 10.7254C11.4534 10.4365 11.047 10.43 10.9258 10.7151L6.81228 20.4007C6.75816 20.5281 6.63314 20.6108 6.49471 20.6108Z" fill="white"/>
<path d="M6.49471 20.6108H2.20906C2.06617 20.6108 1.93806 20.6989 1.88691 20.8323L1.17963 22.6771C1.09301 22.903 1.25981 23.1456 1.50178 23.1456H8.27808C8.41566 23.1456 8.54009 23.0638 8.59472 22.9376L10.8909 17.6307C11.0177 17.3376 11.4405 17.3593 11.5366 17.6639L14.9844 28.5931C15.0853 28.9129 15.5371 28.9153 15.6414 28.5965L20.2407 14.5326C20.3471 14.2072 20.8115 14.2188 20.9015 14.5491L23.1749 22.8913C23.2158 23.0414 23.3522 23.1456 23.5078 23.1456H28.8993C29.1072 23.1456 29.2679 22.9631 29.2415 22.7568L29.0057 20.9121C28.9837 20.7399 28.8371 20.6108 28.6635 20.6108H25.5061C25.3502 20.6108 25.2137 20.5062 25.173 20.3557L21.0593 5.10696C20.9702 4.7768 20.5067 4.76345 20.3988 5.08794L15.6104 19.4846C15.5083 19.7915 15.078 19.8019 14.9612 19.5003L11.5652 10.7254C11.4534 10.4365 11.047 10.43 10.9258 10.7151L6.81228 20.4007C6.75816 20.5281 6.63314 20.6108 6.49471 20.6108Z" stroke="white" stroke-width="0.0862536"/>
</g>
<rect x="28.2561" y="19.5256" width="4.74395" height="4.74395" rx="2.37197" fill="white"/>
<rect x="28.8599" y="20.1294" width="3.5364" height="3.5364" rx="1.7682" fill="#FF0000" fill-opacity="0.29"/>
<g filter="url(#filter1_d)">
<path d="M59.2806 4.39841L55.8124 15H53.1771L50.8448 7.82121L48.4367 15H45.8166L42.3332 4.39841H44.8776L47.2705 11.8498L49.7694 4.39841H52.0412L54.4644 11.9104L56.9331 4.39841H59.2806ZM67.8588 10.9563C67.8588 10.9865 67.8436 11.1986 67.8133 11.5923H61.6493C61.7603 12.0972 62.0228 12.496 62.4368 12.7888C62.8508 13.0816 63.3657 13.228 63.9816 13.228C64.4057 13.228 64.7793 13.1674 65.1023 13.0463C65.4355 12.915 65.7435 12.7131 66.0262 12.4405L67.2832 13.8035C66.5159 14.682 65.3952 15.1212 63.921 15.1212C63.0022 15.1212 62.1894 14.9445 61.4827 14.5911C60.7759 14.2276 60.2307 13.7278 59.847 13.0917C59.4633 12.4556 59.2715 11.7337 59.2715 10.926C59.2715 10.1283 59.4583 9.41145 59.8318 8.77535C60.2155 8.12916 60.7355 7.62937 61.3918 7.27599C62.0582 6.9125 62.8003 6.73076 63.6181 6.73076C64.4158 6.73076 65.1377 6.90241 65.7839 7.2457C66.4301 7.58899 66.9349 8.08373 67.2984 8.72992C67.672 9.36601 67.8588 10.1081 67.8588 10.9563ZM63.6333 8.51789C63.0981 8.51789 62.6488 8.66934 62.2854 8.97224C61.9219 9.27514 61.6997 9.68911 61.619 10.2141H65.6324C65.5517 9.69921 65.3295 9.29029 64.966 8.98739C64.6026 8.67439 64.1583 8.51789 63.6333 8.51789ZM79.2458 15L79.2306 8.63905L76.1107 13.8793H75.0051L71.9004 8.77535V15H69.5983V4.39841H71.6278L75.5958 10.9865L79.5032 4.39841H81.5175L81.5478 15H79.2458ZM83.8965 6.85192H86.2591V15H83.8965V6.85192ZM85.0778 5.71604C84.6437 5.71604 84.2903 5.58983 84.0177 5.33741C83.745 5.08499 83.6087 4.77199 83.6087 4.39841C83.6087 4.02483 83.745 3.71183 84.0177 3.45942C84.2903 3.207 84.6437 3.08079 85.0778 3.08079C85.512 3.08079 85.8654 3.20195 86.138 3.44427C86.4106 3.68659 86.5469 3.9895 86.5469 4.35298C86.5469 4.74675 86.4106 5.0749 86.138 5.33741C85.8654 5.58983 85.512 5.71604 85.0778 5.71604ZM96.8574 6.85192V13.6369C96.8574 15.1313 96.4687 16.2419 95.6912 16.9689C94.9138 17.6958 93.7779 18.0593 92.2836 18.0593C91.496 18.0593 90.7489 17.9634 90.0421 17.7716C89.3353 17.5797 88.7497 17.3021 88.2853 16.9386L89.2243 15.2423C89.5676 15.525 90.0017 15.7472 90.5267 15.9087C91.0518 16.0804 91.5768 16.1662 92.1018 16.1662C92.9197 16.1662 93.5204 15.9794 93.9041 15.6058C94.2979 15.2423 94.4948 14.687 94.4948 13.9398V13.5915C93.8789 14.268 93.0206 14.6062 91.9201 14.6062C91.1729 14.6062 90.4864 14.4447 89.8604 14.1216C89.2445 13.7884 88.7548 13.3239 88.3913 12.7282C88.0278 12.1325 87.8461 11.4459 87.8461 10.6685C87.8461 9.89105 88.0278 9.20447 88.3913 8.60876C88.7548 8.01305 89.2445 7.55365 89.8604 7.23055C90.4864 6.89736 91.1729 6.73076 91.9201 6.73076C93.1014 6.73076 94 7.11949 94.6159 7.89694V6.85192H96.8574ZM92.3896 12.6677C93.0156 12.6677 93.5255 12.4859 93.9193 12.1224C94.3231 11.7488 94.5251 11.2642 94.5251 10.6685C94.5251 10.0728 94.3231 9.59319 93.9193 9.22971C93.5255 8.85613 93.0156 8.66934 92.3896 8.66934C91.7636 8.66934 91.2487 8.85613 90.8448 9.22971C90.4409 9.59319 90.239 10.0728 90.239 10.6685C90.239 11.2642 90.4409 11.7488 90.8448 12.1224C91.2487 12.4859 91.7636 12.6677 92.3896 12.6677ZM104.009 6.73076C105.019 6.73076 105.831 7.03367 106.447 7.63947C107.073 8.24527 107.386 9.14389 107.386 10.3353V15H105.024V10.6988C105.024 10.0526 104.882 9.573 104.6 9.26C104.317 8.9369 103.908 8.77535 103.373 8.77535C102.777 8.77535 102.303 8.96214 101.949 9.33572C101.596 9.69921 101.419 10.2444 101.419 10.9714V15H99.0564V3.76232H101.419V7.70005C101.732 7.38705 102.111 7.14978 102.555 6.98823C102.999 6.81659 103.484 6.73076 104.009 6.73076ZM114.783 14.6062C114.551 14.7779 114.263 14.9091 113.92 15C113.587 15.0808 113.233 15.1212 112.86 15.1212C111.89 15.1212 111.138 14.8738 110.603 14.379C110.078 13.8843 109.816 13.1573 109.816 12.1982V8.85108H108.559V7.03367H109.816V5.04965H112.178V7.03367H114.208V8.85108H112.178V12.1679C112.178 12.5112 112.264 12.7787 112.436 12.9706C112.617 13.1523 112.87 13.2432 113.193 13.2432C113.567 13.2432 113.885 13.1422 114.147 12.9403L114.783 14.6062Z" fill="#002D9F"/>
</g>
<path d="M44.8932 21.7313H42.0474V20.6997H48.913V21.7313H46.0671V29H44.8932V21.7313ZM49.8879 22.7155H51.0262V29H49.8879V22.7155ZM50.457 21.506C50.2357 21.506 50.0499 21.4349 49.8997 21.2926C49.7574 21.1503 49.6863 20.9764 49.6863 20.7708C49.6863 20.5653 49.7574 20.3914 49.8997 20.2491C50.0499 20.0989 50.2357 20.0238 50.457 20.0238C50.6784 20.0238 50.8602 20.095 51.0025 20.2373C51.1527 20.3716 51.2278 20.5416 51.2278 20.7471C51.2278 20.9606 51.1527 21.1424 51.0025 21.2926C50.8602 21.4349 50.6784 21.506 50.457 21.506ZM56.5316 22.6562C57.1403 22.6562 57.6858 22.7906 58.168 23.0594C58.6502 23.3281 59.0257 23.7036 59.2945 24.1858C59.5711 24.668 59.7095 25.2253 59.7095 25.8577C59.7095 26.4901 59.5711 27.0514 59.2945 27.5415C59.0257 28.0237 58.6502 28.3992 58.168 28.668C57.6858 28.9368 57.1403 29.0711 56.5316 29.0711C56.0652 29.0711 55.6384 28.9802 55.251 28.7984C54.8637 28.6166 54.5435 28.3518 54.2906 28.004V29H53.1997V20.2017H54.338V23.6641C54.591 23.3321 54.9072 23.0831 55.2866 22.9171C55.666 22.7432 56.0811 22.6562 56.5316 22.6562ZM56.4368 28.0751C56.8399 28.0751 57.1996 27.9842 57.5158 27.8024C57.8399 27.6127 58.0929 27.3518 58.2747 27.0198C58.4644 26.6799 58.5593 26.2925 58.5593 25.8577C58.5593 25.423 58.4644 25.0396 58.2747 24.7076C58.0929 24.3676 57.8399 24.1068 57.5158 23.925C57.1996 23.7431 56.8399 23.6522 56.4368 23.6522C56.0415 23.6522 55.6819 23.7431 55.3577 23.925C55.0336 24.1068 54.7807 24.3676 54.5989 24.7076C54.417 25.0396 54.3261 25.423 54.3261 25.8577C54.3261 26.2925 54.417 26.6799 54.5989 27.0198C54.7807 27.3518 55.0336 27.6127 55.3577 27.8024C55.6819 27.9842 56.0415 28.0751 56.4368 28.0751ZM64.6143 22.6562C65.2229 22.6562 65.7684 22.7906 66.2506 23.0594C66.7328 23.3281 67.1083 23.7036 67.3771 24.1858C67.6537 24.668 67.7921 25.2253 67.7921 25.8577C67.7921 26.4901 67.6537 27.0514 67.3771 27.5415C67.1083 28.0237 66.7328 28.3992 66.2506 28.668C65.7684 28.9368 65.2229 29.0711 64.6143 29.0711C64.1479 29.0711 63.721 28.9802 63.3336 28.7984C62.9463 28.6166 62.6261 28.3518 62.3732 28.004V29H61.2823V20.2017H62.4206V23.6641C62.6736 23.3321 62.9898 23.0831 63.3692 22.9171C63.7486 22.7432 64.1637 22.6562 64.6143 22.6562ZM64.5194 28.0751C64.9225 28.0751 65.2822 27.9842 65.5984 27.8024C65.9225 27.6127 66.1755 27.3518 66.3573 27.0198C66.547 26.6799 66.6419 26.2925 66.6419 25.8577C66.6419 25.423 66.547 25.0396 66.3573 24.7076C66.1755 24.3676 65.9225 24.1068 65.5984 23.925C65.2822 23.7431 64.9225 23.6522 64.5194 23.6522C64.1241 23.6522 63.7645 23.7431 63.4404 23.925C63.1162 24.1068 62.8633 24.3676 62.6815 24.7076C62.4996 25.0396 62.4087 25.423 62.4087 25.8577C62.4087 26.2925 62.4996 26.6799 62.6815 27.0198C62.8633 27.3518 63.1162 27.6127 63.4404 27.8024C63.7645 27.9842 64.1241 28.0751 64.5194 28.0751ZM69.3649 22.7155H70.5032V29H69.3649V22.7155ZM69.934 21.506C69.7127 21.506 69.5269 21.4349 69.3767 21.2926C69.2344 21.1503 69.1633 20.9764 69.1633 20.7708C69.1633 20.5653 69.2344 20.3914 69.3767 20.2491C69.5269 20.0989 69.7127 20.0238 69.934 20.0238C70.1554 20.0238 70.3372 20.095 70.4795 20.2373C70.6297 20.3716 70.7048 20.5416 70.7048 20.7471C70.7048 20.9606 70.6297 21.1424 70.4795 21.2926C70.3372 21.4349 70.1554 21.506 69.934 21.506ZM78.2379 22.7155L75.1905 29.6285C74.9217 30.2688 74.6055 30.7193 74.2419 30.9802C73.8861 31.2411 73.4553 31.3715 72.9494 31.3715C72.6411 31.3715 72.3407 31.3201 72.0482 31.2174C71.7636 31.1225 71.5265 30.9802 71.3368 30.7905L71.8229 29.9367C72.147 30.245 72.5225 30.3992 72.9494 30.3992C73.2261 30.3992 73.4553 30.3241 73.6371 30.1739C73.8268 30.0316 73.9968 29.7826 74.147 29.4269L74.3486 28.9881L71.5739 22.7155H72.7597L74.9533 27.7431L77.1233 22.7155H78.2379ZM88.0458 22.7155L84.9984 29.6285C84.7297 30.2688 84.4135 30.7193 84.0498 30.9802C83.6941 31.2411 83.2633 31.3715 82.7574 31.3715C82.4491 31.3715 82.1487 31.3201 81.8562 31.2174C81.5716 31.1225 81.3345 30.9802 81.1447 30.7905L81.6309 29.9367C81.955 30.245 82.3305 30.3992 82.7574 30.3992C83.034 30.3992 83.2633 30.3241 83.4451 30.1739C83.6348 30.0316 83.8048 29.7826 83.955 29.4269L84.1566 28.9881L81.3819 22.7155H82.5676L84.7613 27.7431L86.9312 22.7155H88.0458ZM91.6262 29.0711C91.0017 29.0711 90.4404 28.9328 89.9424 28.6561C89.4444 28.3795 89.0531 28 88.7685 27.5178C88.4918 27.0277 88.3535 26.4743 88.3535 25.8577C88.3535 25.2411 88.4918 24.6917 88.7685 24.2095C89.0531 23.7194 89.4444 23.34 89.9424 23.0712C90.4404 22.7945 91.0017 22.6562 91.6262 22.6562C92.2507 22.6562 92.808 22.7945 93.2981 23.0712C93.7961 23.34 94.1835 23.7194 94.4601 24.2095C94.7447 24.6917 94.887 25.2411 94.887 25.8577C94.887 26.4743 94.7447 27.0277 94.4601 27.5178C94.1835 28 93.7961 28.3795 93.2981 28.6561C92.808 28.9328 92.2507 29.0711 91.6262 29.0711ZM91.6262 28.0751C92.0293 28.0751 92.389 27.9842 92.7052 27.8024C93.0293 27.6127 93.2823 27.3518 93.4641 27.0198C93.6459 26.6799 93.7368 26.2925 93.7368 25.8577C93.7368 25.423 93.6459 25.0396 93.4641 24.7076C93.2823 24.3676 93.0293 24.1068 92.7052 23.925C92.389 23.7431 92.0293 23.6522 91.6262 23.6522C91.223 23.6522 90.8594 23.7431 90.5353 23.925C90.2191 24.1068 89.9661 24.3676 89.7764 24.7076C89.5946 25.0396 89.5037 25.423 89.5037 25.8577C89.5037 26.2925 89.5946 26.6799 89.7764 27.0198C89.9661 27.3518 90.2191 27.6127 90.5353 27.8024C90.8594 27.9842 91.223 28.0751 91.6262 28.0751ZM97.5522 23.7708C97.7498 23.4072 98.0423 23.1305 98.4296 22.9408C98.817 22.7511 99.2873 22.6562 99.8407 22.6562V23.759C99.7775 23.751 99.6905 23.7471 99.5798 23.7471C98.9632 23.7471 98.4771 23.9329 98.1214 24.3044C97.7735 24.668 97.5996 25.1898 97.5996 25.8696V29H96.4613V22.7155H97.5522V23.7708ZM107.115 20.2017V29H106.024V28.004C105.771 28.3518 105.451 28.6166 105.063 28.7984C104.676 28.9802 104.249 29.0711 103.783 29.0711C103.174 29.0711 102.628 28.9368 102.146 28.668C101.664 28.3992 101.285 28.0237 101.008 27.5415C100.739 27.0514 100.605 26.4901 100.605 25.8577C100.605 25.2253 100.739 24.668 101.008 24.1858C101.285 23.7036 101.664 23.3281 102.146 23.0594C102.628 22.7906 103.174 22.6562 103.783 22.6562C104.233 22.6562 104.648 22.7432 105.028 22.9171C105.407 23.0831 105.723 23.3321 105.976 23.6641V20.2017H107.115ZM103.877 28.0751C104.273 28.0751 104.632 27.9842 104.957 27.8024C105.281 27.6127 105.534 27.3518 105.715 27.0198C105.897 26.6799 105.988 26.2925 105.988 25.8577C105.988 25.423 105.897 25.0396 105.715 24.7076C105.534 24.3676 105.281 24.1068 104.957 23.925C104.632 23.7431 104.273 23.6522 103.877 23.6522C103.474 23.6522 103.111 23.7431 102.787 23.925C102.47 24.1068 102.217 24.3676 102.028 24.7076C101.846 25.0396 101.755 25.423 101.755 25.8577C101.755 26.2925 101.846 26.6799 102.028 27.0198C102.217 27.3518 102.47 27.6127 102.787 27.8024C103.111 27.9842 103.474 28.0751 103.877 28.0751ZM111.557 22.6562C112.426 22.6562 113.09 22.8696 113.549 23.2965C114.015 23.7234 114.249 24.3597 114.249 25.2056V29H113.17V28.17C112.98 28.4625 112.707 28.6878 112.351 28.8459C112.004 28.996 111.589 29.0711 111.106 29.0711C110.403 29.0711 109.838 28.9012 109.411 28.5613C108.992 28.2214 108.782 27.7747 108.782 27.2214C108.782 26.668 108.984 26.2253 109.387 25.8933C109.79 25.5534 110.43 25.3834 111.308 25.3834H113.11V25.1581C113.11 24.668 112.968 24.2925 112.683 24.0317C112.399 23.7708 111.98 23.6404 111.426 23.6404C111.055 23.6404 110.691 23.7036 110.336 23.8301C109.98 23.9487 109.679 24.1107 109.434 24.3163L108.96 23.4625C109.284 23.2016 109.672 23.004 110.122 22.8696C110.573 22.7273 111.051 22.6562 111.557 22.6562ZM111.296 28.1937C111.731 28.1937 112.106 28.0988 112.423 27.9091C112.739 27.7115 112.968 27.4348 113.11 27.0791V26.2016H111.355C110.391 26.2016 109.909 26.5257 109.909 27.1739C109.909 27.4901 110.031 27.7391 110.276 27.921C110.521 28.1028 110.861 28.1937 111.296 28.1937ZM124.217 22.6562C125.007 22.6562 125.632 22.8854 126.09 23.3439C126.557 23.8024 126.79 24.4823 126.79 25.3834V29H125.651V25.5139C125.651 24.9052 125.509 24.4467 125.225 24.1384C124.948 23.8301 124.549 23.6759 124.027 23.6759C123.45 23.6759 122.991 23.8578 122.652 24.2214C122.312 24.5771 122.142 25.091 122.142 25.7629V29H121.003V25.5139C121.003 24.9052 120.861 24.4467 120.576 24.1384C120.3 23.8301 119.901 23.6759 119.379 23.6759C118.802 23.6759 118.343 23.8578 118.003 24.2214C117.663 24.5771 117.493 25.091 117.493 25.7629V29H116.355V22.7155H117.446V23.6522C117.675 23.3281 117.976 23.0831 118.347 22.9171C118.719 22.7432 119.142 22.6562 119.616 22.6562C120.106 22.6562 120.541 22.755 120.92 22.9526C121.3 23.1503 121.592 23.4388 121.798 23.8182C122.035 23.4546 122.363 23.17 122.782 22.9645C123.209 22.759 123.687 22.6562 124.217 22.6562ZM131.658 29.0711C131.018 29.0711 130.445 28.9328 129.939 28.6561C129.441 28.3795 129.05 28 128.765 27.5178C128.48 27.0277 128.338 26.4743 128.338 25.8577C128.338 25.2411 128.48 24.6917 128.765 24.2095C129.05 23.7194 129.441 23.34 129.939 23.0712C130.445 22.7945 131.018 22.6562 131.658 22.6562C132.227 22.6562 132.733 22.7708 133.176 23.0001C133.627 23.2293 133.974 23.5613 134.219 23.9961L133.354 24.5534C133.156 24.253 132.911 24.0277 132.619 23.8775C132.326 23.7273 132.002 23.6522 131.646 23.6522C131.235 23.6522 130.864 23.7431 130.532 23.925C130.208 24.1068 129.951 24.3676 129.761 24.7076C129.579 25.0396 129.488 25.423 129.488 25.8577C129.488 26.3004 129.579 26.6917 129.761 27.0316C129.951 27.3637 130.208 27.6206 130.532 27.8024C130.864 27.9842 131.235 28.0751 131.646 28.0751C132.002 28.0751 132.326 28 132.619 27.8498C132.911 27.6996 133.156 27.4743 133.354 27.1739L134.219 27.7194C133.974 28.1542 133.627 28.4901 133.176 28.7273C132.733 28.9565 132.227 29.0711 131.658 29.0711ZM138.968 22.6562C139.766 22.6562 140.399 22.8894 140.865 23.3558C141.339 23.8143 141.576 24.4902 141.576 25.3834V29H140.438V25.5139C140.438 24.9052 140.292 24.4467 139.999 24.1384C139.707 23.8301 139.288 23.6759 138.743 23.6759C138.126 23.6759 137.64 23.8578 137.284 24.2214C136.928 24.5771 136.75 25.091 136.75 25.7629V29H135.612V20.2017H136.75V23.6048C136.988 23.3044 137.296 23.0712 137.675 22.9052C138.063 22.7392 138.494 22.6562 138.968 22.6562ZM143.683 22.7155H144.821V29H143.683V22.7155ZM144.252 21.506C144.031 21.506 143.845 21.4349 143.695 21.2926C143.553 21.1503 143.482 20.9764 143.482 20.7708C143.482 20.5653 143.553 20.3914 143.695 20.2491C143.845 20.0989 144.031 20.0238 144.252 20.0238C144.474 20.0238 144.655 20.095 144.798 20.2373C144.948 20.3716 145.023 20.5416 145.023 20.7471C145.023 20.9606 144.948 21.1424 144.798 21.2926C144.655 21.4349 144.474 21.506 144.252 21.506Z" fill="#002D9F"/>
<defs>
<filter id="filter0_d" x="0.768267" y="4.80865" width="28.8642" height="24.7588" filterUnits="userSpaceOnUse" color-interpolation-filters="sRGB">
<feFlood flood-opacity="0" result="BackgroundImageFix"/>
<feColorMatrix in="SourceAlpha" type="matrix" values="0 0 0 0 0 0 0 0 0 0 0 0 0 0 0 0 0 0 127 0"/>
<feOffset dy="0.345014"/>
<feGaussianBlur stdDeviation="0.172507"/>
<feColorMatrix type="matrix" values="0 0 0 0 0 0 0 0 0 0 0 0 0 0 0 0 0 0 0.25 0"/>
<feBlend mode="normal" in2="BackgroundImageFix" result="effect1_dropShadow"/>
<feBlend mode="normal" in="SourceGraphic" in2="effect1_dropShadow" result="shape"/>
</filter>
<filter id="filter1_d" x="41.5146" y="3.08081" width="74.0873" height="16.6158" filterUnits="userSpaceOnUse" color-interpolation-filters="sRGB">
<feFlood flood-opacity="0" result="BackgroundImageFix"/>
<feColorMatrix in="SourceAlpha" type="matrix" values="0 0 0 0 0 0 0 0 0 0 0 0 0 0 0 0 0 0 127 0"/>
<feOffset dy="0.818655"/>
<feGaussianBlur stdDeviation="0.409328"/>
<feColorMatrix type="matrix" values="0 0 0 0 0 0 0 0 0 0 0 0 0 0 0 0 0 0 0.25 0"/>
<feBlend mode="normal" in2="BackgroundImageFix" result="effect1_dropShadow"/>
<feBlend mode="normal" in="SourceGraphic" in2="effect1_dropShadow" result="shape"/>
</filter>
</defs>
</svg>
